# Blender 4.4.3
# www.blender.org
mtllib Variant25.mtl
o X01
v 0.316383 0.750364 0.218314
v 0.316383 0.501716 0.218314
v 0.316383 0.750364 0.411821
v 0.316383 0.501716 0.411821
v 0.140386 0.750364 0.218314
v 0.140386 0.501716 0.218314
v 0.140386 0.750364 0.411821
v 0.140386 0.501716 0.411821
v 0.434826 1.410029 -0.262014
v 0.434826 0.742792 -0.262014
v 0.434826 1.410029 0.427343
v 0.434826 0.742792 0.427343
v 0.040828 1.410029 -0.262014
v 0.040828 0.742792 -0.262014
v 0.040828 1.410029 0.427343
v 0.040828 0.742792 0.427343
v 0.434826 1.410738 -0.832511
v 0.434826 0.407266 -0.832511
v 0.434826 1.410738 -0.247879
v 0.434826 0.407266 -0.247879
v 0.040828 1.410738 -0.832511
v 0.040828 0.407266 -0.832511
v 0.040828 1.410738 -0.247879
v 0.040828 0.407266 -0.247879
v 0.434826 1.915635 -0.294058
v 0.434826 1.402483 -0.294058
v 0.434826 1.915635 0.062202
v 0.434826 1.402483 0.062202
v 0.040828 1.915635 -0.294058
v 0.040828 1.402483 -0.294058
v 0.040828 1.915635 0.062202
v 0.040828 1.402483 0.062202
vn -0.0000 1.0000 -0.0000
vn -0.0000 -0.0000 1.0000
vn -1.0000 -0.0000 -0.0000
vn -0.0000 -1.0000 -0.0000
vn 1.0000 -0.0000 -0.0000
vn -0.0000 -0.0000 -1.0000
vt 0.625000 0.500000
vt 0.875000 0.500000
vt 0.875000 0.750000
vt 0.625000 0.750000
vt 0.375000 0.750000
vt 0.625000 1.000000
vt 0.375000 1.000000
vt 0.375000 0.000000
vt 0.625000 0.000000
vt 0.625000 0.250000
vt 0.375000 0.250000
vt 0.125000 0.500000
vt 0.375000 0.500000
vt 0.125000 0.750000
s 1
usemtl Material.001
f 1/1/1 5/2/1 7/3/1 3/4/1
f 4/5/2 3/4/2 7/6/2 8/7/2
f 8/8/3 7/9/3 5/10/3 6/11/3
f 6/12/4 2/13/4 4/5/4 8/14/4
f 2/13/5 1/1/5 3/4/5 4/5/5
f 6/11/6 5/10/6 1/1/6 2/13/6
f 9/1/1 13/2/1 15/3/1 11/4/1
f 12/5/2 11/4/2 15/6/2 16/7/2
f 16/8/3 15/9/3 13/10/3 14/11/3
f 14/12/4 10/13/4 12/5/4 16/14/4
f 10/13/5 9/1/5 11/4/5 12/5/5
f 14/11/6 13/10/6 9/1/6 10/13/6
f 17/1/1 21/2/1 23/3/1 19/4/1
f 20/5/2 19/4/2 23/6/2 24/7/2
f 24/8/3 23/9/3 21/10/3 22/11/3
f 22/12/4 18/13/4 20/5/4 24/14/4
f 18/13/5 17/1/5 19/4/5 20/5/5
f 22/11/6 21/10/6 17/1/6 18/13/6
f 25/1/1 29/2/1 31/3/1 27/4/1
f 28/5/2 27/4/2 31/6/2 32/7/2
f 32/8/3 31/9/3 29/10/3 30/11/3
f 30/12/4 26/13/4 28/5/4 32/14/4
f 26/13/5 25/1/5 27/4/5 28/5/5
f 30/11/6 29/10/6 25/1/6 26/13/6
o Cube.006
v 0.296250 -1.399945 -0.826479
v 0.296250 -1.516439 -0.826479
v 0.296250 -1.399945 0.692333
v 0.296250 -1.516439 0.692333
v 0.179403 -1.399945 -0.826479
v 0.179403 -1.516439 -0.826479
v 0.179403 -1.399945 0.692333
v 0.179403 -1.516439 0.692333
v 1.169338 -1.496350 -2.329332
v 1.169338 -2.098285 -2.329332
v 1.169338 -1.496350 2.128298
v 1.169338 -2.098285 2.128298
v -0.694735 -1.496350 -2.329332
v -0.694735 -2.098285 -2.329332
v -0.694735 -1.496350 2.128298
v -0.694735 -2.098285 2.128298
v 0.617668 1.553512 -1.701441
v 0.617668 -1.877521 -1.701441
v 0.617668 1.553512 -0.831685
v 0.617668 -1.877521 -0.831685
v -0.142014 1.553512 -1.701441
v -0.142014 -1.877521 -1.701441
v -0.142014 1.553512 -0.831685
v -0.142014 -1.877521 -0.831685
v 0.296250 1.515358 -0.834337
v 0.296250 -1.162346 -0.834337
v 0.296250 1.515358 -0.737556
v 0.296250 -1.162346 -0.737556
v 0.179403 1.515358 -0.834337
v 0.179403 -1.162346 -0.834337
v 0.179403 1.515358 -0.737556
v 0.179403 -1.162346 -0.737556
vn -0.0000 1.0000 -0.0000
vn -0.0000 -0.0000 1.0000
vn -1.0000 -0.0000 -0.0000
vn -0.0000 -1.0000 -0.0000
vn 1.0000 -0.0000 -0.0000
vn -0.0000 -0.0000 -1.0000
vt 0.625000 0.500000
vt 0.875000 0.500000
vt 0.875000 0.750000
vt 0.625000 0.750000
vt 0.375000 0.750000
vt 0.625000 1.000000
vt 0.375000 1.000000
vt 0.375000 0.000000
vt 0.625000 0.000000
vt 0.625000 0.250000
vt 0.375000 0.250000
vt 0.125000 0.500000
vt 0.375000 0.500000
vt 0.125000 0.750000
s 1
usemtl Material.001
f 33/15/7 37/16/7 39/17/7 35/18/7
f 36/19/8 35/18/8 39/20/8 40/21/8
f 40/22/9 39/23/9 37/24/9 38/25/9
f 38/26/10 34/27/10 36/19/10 40/28/10
f 34/27/11 33/15/11 35/18/11 36/19/11
f 38/25/12 37/24/12 33/15/12 34/27/12
f 41/15/7 45/16/7 47/17/7 43/18/7
f 44/19/8 43/18/8 47/20/8 48/21/8
f 48/22/9 47/23/9 45/24/9 46/25/9
f 46/26/10 42/27/10 44/19/10 48/28/10
f 42/27/11 41/15/11 43/18/11 44/19/11
f 46/25/12 45/24/12 41/15/12 42/27/12
f 49/15/7 53/16/7 55/17/7 51/18/7
f 52/19/8 51/18/8 55/20/8 56/21/8
f 56/22/9 55/23/9 53/24/9 54/25/9
f 54/26/10 50/27/10 52/19/10 56/28/10
f 50/27/11 49/15/11 51/18/11 52/19/11
f 54/25/12 53/24/12 49/15/12 50/27/12
f 57/15/7 61/16/7 63/17/7 59/18/7
f 60/19/8 59/18/8 63/20/8 64/21/8
f 64/22/9 63/23/9 61/24/9 62/25/9
f 62/26/10 58/27/10 60/19/10 64/28/10
f 58/27/11 57/15/11 59/18/11 60/19/11
f 62/25/12 61/24/12 57/15/12 58/27/12
o X02
v 2.440150 -1.117232 0.167475
v 2.440150 -1.401966 0.167475
v 2.440150 -1.117232 0.456643
v 2.440150 -1.401966 0.456643
v -1.936595 -1.117232 0.167475
v -1.936595 -1.401966 0.167475
v -1.936595 -1.117232 0.456643
v -1.936595 -1.401966 0.456643
vn -0.0000 1.0000 -0.0000
vn -0.0000 -0.0000 1.0000
vn -1.0000 -0.0000 -0.0000
vn -0.0000 -1.0000 -0.0000
vn 1.0000 -0.0000 -0.0000
vn -0.0000 -0.0000 -1.0000
vt 0.625000 0.500000
vt 0.875000 0.500000
vt 0.875000 0.750000
vt 0.625000 0.750000
vt 0.375000 0.750000
vt 0.625000 1.000000
vt 0.375000 1.000000
vt 0.375000 0.000000
vt 0.625000 0.000000
vt 0.625000 0.250000
vt 0.375000 0.250000
vt 0.125000 0.500000
vt 0.375000 0.500000
vt 0.125000 0.750000
s 1
usemtl Material.001
f 65/29/13 69/30/13 71/31/13 67/32/13
f 68/33/14 67/32/14 71/34/14 72/35/14
f 72/36/15 71/37/15 69/38/15 70/39/15
f 70/40/16 66/41/16 68/33/16 72/42/16
f 66/41/17 65/29/17 67/32/17 68/33/17
f 70/39/18 69/38/18 65/29/18 66/41/18
o X03
v 1.140051 -0.819433 -0.144248
v 1.140051 -1.118758 -0.144248
v 1.140051 -0.819433 0.768365
v 1.140051 -1.118758 0.768365
v -0.754667 -0.819433 -0.144248
v -0.754667 -1.118758 -0.144248
v -0.754667 -0.819433 0.768365
v -0.754667 -1.118758 0.768365
vn -0.0000 1.0000 -0.0000
vn -0.0000 -0.0000 1.0000
vn -1.0000 -0.0000 -0.0000
vn -0.0000 -1.0000 -0.0000
vn 1.0000 -0.0000 -0.0000
vn -0.0000 -0.0000 -1.0000
vt 0.625000 0.500000
vt 0.875000 0.500000
vt 0.875000 0.750000
vt 0.625000 0.750000
vt 0.375000 0.750000
vt 0.625000 1.000000
vt 0.375000 1.000000
vt 0.375000 0.000000
vt 0.625000 0.000000
vt 0.625000 0.250000
vt 0.375000 0.250000
vt 0.125000 0.500000
vt 0.375000 0.500000
vt 0.125000 0.750000
s 1
usemtl Material.001
f 73/43/19 77/44/19 79/45/19 75/46/19
f 76/47/20 75/46/20 79/48/20 80/49/20
f 80/50/21 79/51/21 77/52/21 78/53/21
f 78/54/22 74/55/22 76/47/22 80/56/22
f 74/55/23 73/43/23 75/46/23 76/47/23
f 78/53/24 77/52/24 73/43/24 74/55/24
